<svg width="28" height="28" viewBox="0 0 28 28" fill="none" xmlns="http://www.w3.org/2000/svg">
<g clip-path="url(#clip0_16814_7887)">
<path d="M13.6719 0H2.1875C0.979379 0 0 0.979379 0 2.1875V13.6719C0 14.88 0.979379 15.8594 2.1875 15.8594H13.6719C14.88 15.8594 15.8594 14.88 15.8594 13.6719V2.1875C15.8594 0.979379 14.88 0 13.6719 0Z" fill="url(#paint0_linear_16814_7887)"/>
<path d="M5.75194 10.95C7.53256 10.95 8.29337 9.73594 8.47953 8.94275L7.25737 8.59475C7.14406 9.0075 6.74747 9.67119 5.75194 9.67119C4.894 9.67119 4.10081 9.04802 4.10081 7.97153C4.10081 6.76556 4.96684 6.21519 5.73575 6.21519C6.74747 6.21519 7.11168 6.88697 7.20072 7.28356L8.40668 6.90316C8.22053 6.07759 7.45972 4.96875 5.73575 4.96875C4.13319 4.96875 2.77344 6.18281 2.77344 7.97153C2.77344 9.76027 4.10081 10.95 5.75194 10.95ZM12.9364 10.8286V9.61458H10.573V8.51381H12.7097V7.38878H10.573V6.29612H12.9282V5.09016H9.29417V10.8286H12.9364Z" fill="white"/>
<path d="M25.8125 12.1406H14.3281C13.12 12.1406 12.1406 13.12 12.1406 14.3281V25.8125C12.1406 27.0206 13.12 28 14.3281 28H25.8125C27.0206 28 28 27.0206 28 25.8125V14.3281C28 13.12 27.0206 12.1406 25.8125 12.1406Z" fill="url(#paint1_linear_16814_7887)"/>
<path d="M17.1385 19.8004V18.3354H17.8831C18.3688 18.3354 18.7006 18.6105 18.7006 19.0719C18.7006 19.517 18.3688 19.8004 17.8831 19.8004H17.1385ZM18.0126 20.9011C19.1781 20.9011 19.9794 20.1484 19.9794 19.0638C19.9794 17.9954 19.1781 17.2266 18.0126 17.2266H15.8516V22.965H17.1304V20.9011H18.0126ZM24.4575 22.965V21.7509H22.0942V20.6502H24.2309V19.5252H22.0942V18.4325H24.4495V17.2266H20.8154V22.965H24.4575Z" fill="white"/>
</g>
<defs>
<linearGradient id="paint0_linear_16814_7887" x1="7.92969" y1="0" x2="7.92969" y2="15.8594" gradientUnits="userSpaceOnUse">
<stop stop-color="#FFC149"/>
<stop offset="1" stop-color="#EEA20E"/>
</linearGradient>
<linearGradient id="paint1_linear_16814_7887" x1="20.0703" y1="12.1406" x2="20.0703" y2="28" gradientUnits="userSpaceOnUse">
<stop stop-color="#8D7DF0"/>
<stop offset="1" stop-color="#6A56E3"/>
</linearGradient>
<clipPath id="clip0_16814_7887">
<rect width="28" height="28" fill="white"/>
</clipPath>
</defs>
</svg>
