<svg width="24" height="24" viewBox="0 0 24 24" fill="none" xmlns="http://www.w3.org/2000/svg">
<path d="M8.23098 14.6157H15.7631C16.1062 14.615 16.4308 14.4607 16.6482 14.1954C16.8656 13.93 16.953 13.5813 16.8864 13.2449L15.9696 8.62818V8.62803C15.9213 8.36793 15.7832 8.13288 15.5795 7.96383C15.3758 7.79478 15.1194 7.7026 14.8547 7.70313H9.13946C8.87478 7.7026 8.61828 7.79478 8.41466 7.96383C8.21096 8.13288 8.07288 8.36793 8.02458 8.62803L7.10777 13.2447V13.2449C7.0412 13.5813 7.12862 13.93 7.34594 14.1954C7.56333 14.4607 7.88793 14.615 8.23098 14.6157Z" fill="url(#paint0_linear_17305_21761)"/>
<path d="M21.1556 16.2142C21.1073 15.9539 20.9694 15.7188 20.7657 15.5498C20.5618 15.3807 20.3054 15.2885 20.0407 15.2891H14.3336C14.0679 15.2882 13.8103 15.3802 13.6052 15.5491C13.4002 15.7179 13.2604 15.9531 13.2104 16.2142L12.2937 20.8309C12.2299 21.1661 12.3184 21.5124 12.5355 21.7757C12.7525 22.0391 13.0754 22.1924 13.4169 22.1936H20.9491H20.9489C21.2912 22.1953 21.6162 22.043 21.8339 21.7788C22.0517 21.5147 22.139 21.1666 22.0721 20.8309L21.1556 16.2142Z" fill="url(#paint1_linear_17305_21761)"/>
<path d="M10.7824 16.2141C10.7324 15.9531 10.5927 15.7179 10.3877 15.549C10.1825 15.3801 9.92497 15.2882 9.65932 15.2891H3.95218C3.68745 15.2885 3.43102 15.3807 3.22714 15.5498C3.02343 15.7188 2.88554 15.9539 2.83724 16.2141L1.92045 20.8308C1.85354 21.1665 1.94092 21.5146 2.15864 21.7787C2.37636 22.043 2.70136 22.1952 3.04371 22.1936H10.5758H10.5757C10.9171 22.1923 11.24 22.0391 11.457 21.7757C11.6742 21.5124 11.7627 21.166 11.6989 20.8308L10.7824 16.2141Z" fill="url(#paint2_linear_17305_21761)"/>
<path d="M12 5.58867C12.3193 5.58867 12.5782 5.32983 12.5782 5.01052V2.35937C12.5782 2.04008 12.3193 1.78125 12 1.78125C11.6807 1.78125 11.4219 2.04008 11.4219 2.35937V5.01052C11.4219 5.16389 11.4827 5.31084 11.5913 5.41921C11.6997 5.52783 11.8466 5.58867 12 5.58867Z" fill="#FF9700"/>
<path d="M23.4244 11.9922H20.7735C20.4542 11.9922 20.1953 12.2509 20.1953 12.5703C20.1953 12.8896 20.4542 13.1484 20.7735 13.1484H23.4247H23.4244C23.7437 13.1484 24.0025 12.8896 24.0025 12.5703C24.0025 12.2509 23.7437 11.9922 23.4244 11.9922Z" fill="#FF9700"/>
<path d="M3.80721 12.5547C3.80721 12.2354 3.54838 11.9766 3.22909 11.9766H0.578123C0.258829 11.9766 0 12.2354 0 12.5547C0 12.874 0.258829 13.1328 0.578123 13.1328H3.22909C3.54838 13.1328 3.80721 12.874 3.80721 12.5547Z" fill="#FF9700"/>
<path d="M18.2005 8.15363C18.3536 8.15423 18.5001 8.09153 18.6052 7.98015L20.4801 6.10532C20.5931 5.99788 20.6572 5.84853 20.6572 5.69239C20.6572 5.53644 20.5931 5.38709 20.4801 5.27942C20.2515 5.05269 19.8828 5.05269 19.6542 5.27942L17.7793 7.16258C17.6188 7.33086 17.5729 7.57808 17.6623 7.7928C17.7517 8.0076 17.9596 8.14905 18.1922 8.15363H18.2005Z" fill="#FF9700"/>
<path d="M5.39611 7.97969C5.50116 8.09099 5.64773 8.15368 5.80073 8.15316C6.03337 8.14851 6.24136 8.00713 6.33075 7.79241C6.42014 7.57761 6.37425 7.33038 6.21366 7.16209L4.33899 5.28724C4.11039 5.0605 3.7417 5.0605 3.5131 5.28724C3.39991 5.39491 3.33594 5.54407 3.33594 5.70021C3.33594 5.85634 3.39991 6.00565 3.5131 6.11313L5.39611 7.97969Z" fill="#FF9700"/>
<defs>
<linearGradient id="paint0_linear_17305_21761" x1="8.74698" y1="7.6918" x2="16.2786" y2="14.6298" gradientUnits="userSpaceOnUse">
<stop stop-color="#FFC200"/>
<stop offset="1" stop-color="#FF9700"/>
</linearGradient>
<linearGradient id="paint1_linear_17305_21761" x1="13.9342" y1="15.2778" x2="21.4577" y2="22.2153" gradientUnits="userSpaceOnUse">
<stop stop-color="#FFC200"/>
<stop offset="1" stop-color="#FF9700"/>
</linearGradient>
<linearGradient id="paint2_linear_17305_21761" x1="3.5592" y1="15.2778" x2="11.0827" y2="22.2153" gradientUnits="userSpaceOnUse">
<stop stop-color="#FFC200"/>
<stop offset="1" stop-color="#FF9700"/>
</linearGradient>
</defs>
</svg>
