<svg width="24" height="24" viewBox="0 0 24 24" fill="none" xmlns="http://www.w3.org/2000/svg">
<g clip-path="url(#clip0_17305_21752)">
<path d="M18.375 23.3437C21.2227 23.3437 23.5312 21.0352 23.5312 18.1875C23.5312 15.3397 21.2227 13.0312 18.375 13.0312C15.5272 13.0312 13.2188 15.3397 13.2188 18.1875C13.2188 21.0352 15.5272 23.3437 18.375 23.3437Z" fill="url(#paint0_linear_17305_21752)"/>
<path d="M18.5843 16.3583C18.7993 16.3639 19.0101 16.4186 19.2004 16.5186C19.3906 16.6185 19.5552 16.7609 19.6813 16.9345C19.7485 17.0224 19.8481 17.0801 19.958 17.095C20.0679 17.1098 20.1792 17.0807 20.2675 17.0138C20.3115 16.9802 20.3483 16.9384 20.3759 16.8905C20.4035 16.8427 20.4214 16.7899 20.4284 16.7351C20.4354 16.6804 20.4314 16.6249 20.4168 16.5716C20.4021 16.5184 20.377 16.4686 20.3429 16.4252C20.1392 16.15 19.8745 15.9255 19.5694 15.7691C19.2644 15.6126 18.9273 15.5286 18.5843 15.5234C18.1048 15.5374 17.6413 15.6983 17.2569 15.9845C16.8725 16.2706 16.5859 16.6679 16.4363 17.1224H15.825C15.7139 17.1224 15.6074 17.1663 15.5289 17.2446C15.4503 17.3229 15.4062 17.4291 15.4062 17.5398C15.4062 17.6505 15.4503 17.7567 15.5289 17.835C15.6074 17.9133 15.7139 17.9573 15.825 17.9573H16.2436V18.166V18.3747H15.825C15.7139 18.3747 15.6074 18.4187 15.5289 18.497C15.4503 18.5753 15.4062 18.6815 15.4062 18.7922C15.4062 18.9029 15.4503 19.0091 15.5289 19.0874C15.6074 19.1657 15.7139 19.2097 15.825 19.2097H16.4363C16.5859 19.6641 16.8725 20.0615 17.2569 20.3476C17.6413 20.6337 18.1048 20.7947 18.5843 20.8086C18.9273 20.8034 19.2644 20.7194 19.5694 20.563C19.8745 20.4065 20.1392 20.182 20.3429 19.9069C20.3879 19.8651 20.4232 19.814 20.4462 19.7571C20.4692 19.7003 20.4793 19.6391 20.4759 19.5779C20.4725 19.5166 20.4556 19.4569 20.4264 19.4029C20.3972 19.349 20.3564 19.3021 20.3071 19.2656C20.2576 19.2291 20.2007 19.2039 20.1404 19.1918C20.0802 19.1798 20.0179 19.181 19.9582 19.1956C19.8985 19.2102 19.8427 19.2377 19.7948 19.2762C19.747 19.3148 19.7083 19.3633 19.6813 19.4184C19.5552 19.5921 19.3906 19.7344 19.2004 19.8343C19.0101 19.9343 18.7993 19.9891 18.5843 19.9945C18.3288 19.9845 18.0806 19.9064 17.8656 19.7684C17.6506 19.6304 17.4766 19.4375 17.3617 19.2097H18.3373C18.4483 19.2097 18.5548 19.1657 18.6333 19.0874C18.7119 19.0091 18.756 18.9029 18.756 18.7922C18.756 18.6815 18.7119 18.5753 18.6333 18.497C18.5548 18.4187 18.4483 18.3747 18.3373 18.3747H17.102C17.0909 18.3056 17.0839 18.236 17.0811 18.166C17.0839 18.0961 17.0909 18.0263 17.102 17.9573H18.3373C18.4483 17.9573 18.5548 17.9133 18.6333 17.835C18.7119 17.7567 18.756 17.6505 18.756 17.5398C18.756 17.4291 18.7119 17.3229 18.6333 17.2446C18.5548 17.1663 18.4483 17.1224 18.3373 17.1224H17.3617C17.4794 16.8985 17.6546 16.7099 17.8694 16.5756C18.0842 16.4414 18.3309 16.3664 18.5843 16.3583Z" fill="white"/>
<path d="M5.625 23.3437C8.47275 23.3437 10.7812 21.0352 10.7812 18.1875C10.7812 15.3397 8.47275 13.0312 5.625 13.0312C2.77728 13.0312 0.46875 15.3397 0.46875 18.1875C0.46875 21.0352 2.77728 23.3437 5.625 23.3437Z" fill="url(#paint1_linear_17305_21752)"/>
<path d="M7.57354 19.5627C7.45145 20.2426 6.87808 20.6749 6.06329 20.7706V21.2302C6.06329 21.472 5.86741 21.668 5.62492 21.668C5.38239 21.668 5.18542 21.4724 5.18542 21.2302V20.752C5.17933 20.7511 5.17394 20.7516 5.16785 20.7506C4.8086 20.6992 4.43138 20.5701 4.09874 20.4562L3.94745 20.4046C3.71811 20.3274 3.59465 20.0784 3.67229 19.85C3.74993 19.6215 3.99986 19.498 4.22866 19.5753L4.3838 19.6281C4.67994 19.7294 5.01517 19.8444 5.29473 19.8843C5.94067 19.9794 6.62612 19.8727 6.70895 19.4179C6.78011 19.0274 6.55586 18.8722 5.50829 18.5876L5.302 18.5313C4.6997 18.363 3.44678 18.0142 3.67613 16.757C3.79753 16.0881 4.36844 15.6556 5.18542 15.5602V15.1018C5.18542 14.8601 5.38197 14.6641 5.62464 14.6641C5.86727 14.6641 6.06329 14.8601 6.06329 15.1018V15.5799C6.06935 15.5808 6.07483 15.5805 6.08087 15.5814C6.31281 15.616 6.5777 15.6836 6.91375 15.7942C7.14437 15.8698 7.26958 16.1171 7.19373 16.3469C7.11789 16.5763 6.86879 16.7007 6.63944 16.6258C6.35523 16.5325 6.13023 16.4741 5.95141 16.4476C5.30889 16.3522 4.62261 16.4588 4.53948 16.9144C4.47899 17.2468 4.60464 17.4274 5.53933 17.6872L5.73944 17.7421C6.56125 17.9663 7.80401 18.3042 7.57354 19.5627Z" fill="white"/>
<path d="M12 15.6094C16.1421 15.6094 19.5 12.2515 19.5 8.10937C19.5 3.96724 16.1421 0.609375 12 0.609375C7.8579 0.609375 4.5 3.96724 4.5 8.10937C4.5 12.2515 7.8579 15.6094 12 15.6094Z" fill="url(#paint2_linear_17305_21752)"/>
<path d="M14.7739 4.85498H13.4248C13.6687 5.16051 13.8231 5.53397 13.8878 5.97534H15.0369L14.7739 6.86939H13.905C13.8364 7.54082 13.5677 8.04624 13.0989 8.38577C12.6301 8.72529 11.9784 8.89502 11.1438 8.89502L13.9621 12.1316V12.1996H12.6645L9.63457 8.70834L9.6288 8.00102H11.0523C11.5287 7.99727 11.9155 7.89542 12.2128 7.69547C12.5101 7.49179 12.6988 7.2164 12.7788 6.86939H9.46875L9.7317 5.97534H12.7674C12.5844 5.25862 12.0241 4.88516 11.0866 4.85498H9.48015L9.74887 3.96094H15.0369L14.7739 4.85498Z" fill="white"/>
</g>
<defs>
<linearGradient id="paint0_linear_17305_21752" x1="18.375" y1="13.0312" x2="18.375" y2="23.3437" gradientUnits="userSpaceOnUse">
<stop stop-color="#6AACFF"/>
<stop offset="1" stop-color="#338DEF"/>
</linearGradient>
<linearGradient id="paint1_linear_17305_21752" x1="2.1875" y1="14.3984" x2="9.1797" y2="21.6445" gradientUnits="userSpaceOnUse">
<stop stop-color="#FFCA51"/>
<stop offset="1" stop-color="#FFAB01"/>
</linearGradient>
<linearGradient id="paint2_linear_17305_21752" x1="6.99998" y1="2.59801" x2="17.1704" y2="13.1378" gradientUnits="userSpaceOnUse">
<stop stop-color="#86D047"/>
<stop offset="1" stop-color="#67B129"/>
</linearGradient>
<clipPath id="clip0_17305_21752">
<rect width="24" height="24" fill="white"/>
</clipPath>
</defs>
</svg>
