<svg width="24" height="24" viewBox="0 0 24 24" fill="none" xmlns="http://www.w3.org/2000/svg">
<g clip-path="url(#clip0_17305_21725)">
<path d="M12.9375 0.5625C12.9375 0.25184 13.1893 0 13.5 0H16.5937C16.9044 0 17.1562 0.25184 17.1562 0.5625V16.9219C17.1562 18.1646 16.1489 19.1719 14.9062 19.1719H13.5C13.1893 19.1719 12.9375 18.92 12.9375 18.6094V0.5625Z" fill="#338DEF"/>
<path d="M8.71094 5.26563C8.71094 4.95498 8.96279 4.70312 9.27344 4.70312H12.9297V18.8971C12.9297 19.9326 12.0902 20.7721 11.0547 20.7721H8.71094V5.26563Z" fill="#54A0FF"/>
<path d="M4.49219 9.86719C4.49219 9.55654 4.74402 9.30469 5.0547 9.30469H8.71099V20.4581C8.71099 21.5454 7.82951 22.4268 6.7422 22.4268H4.49219V9.86719Z" fill="#8AC2FF"/>
<path d="M0.273438 14.4766C0.273438 14.1659 0.525275 13.9141 0.835941 13.9141H4.49219V22.5141C4.49219 22.8248 4.24035 23.0766 3.92969 23.0766H0.273438V14.4766Z" fill="#ACD6FC"/>
<path fill-rule="evenodd" clip-rule="evenodd" d="M23.9986 10.9831C24.0117 10.8441 23.9014 10.7246 23.7619 10.7266L18.8442 10.7974C18.6415 10.8003 18.5378 11.0417 18.6753 11.1907L19.9574 12.5798C19.8539 12.6898 17.4159 15.2757 15.6097 16.6741C13.6745 18.1721 12.4844 18.9023 10.2917 19.9892C8.5716 20.8418 7.56263 21.2474 5.73352 21.8309C4.57211 22.2014 3.90865 22.3763 2.7177 22.6366C1.78049 22.8414 0.300456 23.074 0.300456 23.074C0.300456 23.074 -0.0218516 23.12 0.00117785 23.3503C0.0242072 23.5805 0.300456 23.5575 0.300456 23.5575L2.83281 23.3503C2.83281 23.3503 4.7941 23.1015 6.03277 22.8438C7.9467 22.4456 9.00968 22.1378 10.8443 21.4625C13.3196 20.5514 14.6701 19.8895 16.9219 18.5158C18.9595 17.2727 21.8073 14.9123 21.9785 14.7701L23.1284 16.0161C23.2659 16.1651 23.5148 16.0811 23.534 15.8792L23.9986 10.9831Z" fill="#FFAC06"/>
</g>
<defs>
<clipPath id="clip0_17305_21725">
<rect width="24" height="24" fill="white"/>
</clipPath>
</defs>
</svg>
