<svg width="44" height="44" viewBox="0 0 44 44" fill="none" xmlns="http://www.w3.org/2000/svg">
<g clip-path="url(#clip0_16814_29837)">
<path d="M43.1406 42.2812H0.859375C0.384755 42.2812 0 42.666 0 43.1406C0 43.6153 0.384755 44 0.859375 44H43.1406C43.6153 44 44 43.6153 44 43.1406C44 42.666 43.6153 42.2812 43.1406 42.2812Z" fill="#D7E5F5"/>
<path fill-rule="evenodd" clip-rule="evenodd" d="M43.2898 17.3913C43.7251 17.7583 43.7805 18.4089 43.4136 18.8444L32.989 31.2094L23.9719 27.2159L18.7982 33.4586L8.46017 29.4891L2.25753 34.2111C1.80436 34.5561 1.15733 34.4684 0.812337 34.0153C0.467344 33.5621 0.555037 32.915 1.00821 32.5701L8.12588 27.1515L18.1551 31.0023L23.3798 24.698L32.4094 28.697L41.8366 17.5149C42.2037 17.0796 42.8544 17.0242 43.2898 17.3913Z" fill="url(#paint0_linear_16814_29837)"/>
<path d="M3.86719 18.584C5.16828 19.6394 6.70382 20.3669 8.34465 20.7053C9.98547 21.0437 11.6835 20.9829 13.2961 20.5282C14.9085 20.0735 16.3881 19.2382 17.6105 18.0925C18.8329 16.9469 19.7622 15.5243 20.3202 13.9447C20.8782 12.365 21.0487 10.6743 20.8171 9.01509C20.5857 7.35582 19.9591 5.77642 18.99 4.4098C18.0209 3.04316 16.7378 1.92929 15.2485 1.1619C13.7593 0.394498 12.1075 -0.00396617 10.4322 2.976e-05L10.4571 10.4604L3.86719 18.584Z" fill="#7CDA0F"/>
<path d="M10.4604 0C9.08674 1.375e-08 7.7265 0.270567 6.45739 0.796252C5.18827 1.32194 4.03513 2.09245 3.06378 3.06378C2.09245 4.03513 1.32194 5.18827 0.796252 6.45739C0.270566 7.7265 -2.3375e-07 9.08674 0 10.4604H10.4604V0Z" fill="#2196F3"/>
<path d="M0 10.4609C0 12.4149 0.547308 14.33 1.5799 15.9888C2.6125 17.6477 4.0891 18.9842 5.84236 19.8469L10.4604 10.4609H0Z" fill="#FFC107"/>
</g>
<defs>
<linearGradient id="paint0_linear_16814_29837" x1="41.8087" y1="18.2226" x2="1.63287" y2="33.4335" gradientUnits="userSpaceOnUse">
<stop stop-color="#358EF0"/>
<stop offset="1" stop-color="#6AADFF"/>
</linearGradient>
<clipPath id="clip0_16814_29837">
<rect width="44" height="44" fill="white"/>
</clipPath>
</defs>
</svg>
