<svg width="24" height="24" viewBox="0 0 24 24" fill="none" xmlns="http://www.w3.org/2000/svg">
<path d="M4.31249 1.27935H19.6406C20.0731 1.27935 20.4238 1.62998 20.4238 2.06249V21.9374C20.4238 22.37 20.0731 22.7206 19.6406 22.7206H4.31249C3.88 22.7206 3.52935 22.37 3.52935 21.9374V2.06249C3.52935 1.62998 3.87998 1.27935 4.31249 1.27935Z" fill="#FAF1FF" stroke="#D5BFE0" stroke-width="0.683706"/>
<path d="M8.64694 9.57031H8.62031C8.53234 9.57031 8.46094 9.63331 8.46094 9.71101V20.9078C8.46094 20.9854 8.53234 21.0484 8.62031 21.0484H8.64694C8.73499 21.0484 8.80631 20.9854 8.80631 20.9078V9.71101C8.80631 9.63331 8.73499 9.57031 8.64694 9.57031Z" fill="#939393"/>
<path d="M13.9126 7.16406H13.8859C13.7979 7.16406 13.7266 7.23841 13.7266 7.33012V20.5519C13.7266 20.6437 13.7979 20.718 13.8859 20.718H13.9126C14.0006 20.718 14.0719 20.6437 14.0719 20.5519V7.33012C14.0719 7.23841 14.0006 7.16406 13.9126 7.16406Z" fill="#939393"/>
<path d="M9.68298 12.8672H7.58426C7.11489 12.8672 6.73438 13.1385 6.73438 13.4732V18.9087C6.73438 19.2433 7.11489 19.5147 7.58426 19.5147H9.68298C10.1524 19.5147 10.533 19.2433 10.533 18.9087V13.4732C10.533 13.1385 10.1524 12.8672 9.68298 12.8672Z" fill="#FF7171"/>
<path d="M14.9486 9H12.8499C12.3805 9 12 9.39788 12 9.88875V17.8613C12 18.3521 12.3805 18.7501 12.8499 18.7501H14.9486C15.418 18.7501 15.7985 18.3521 15.7985 17.8613V9.88875C15.7985 9.39788 15.418 9 14.9486 9Z" fill="#6CB62E"/>
<path d="M18.0703 11.1193V6.43752L21.7012 6.3125V11.1193C21.7012 11.1193 21.5957 11.2039 21.5196 11.2444C20.9076 11.5694 20.1467 10.1193 20.1467 10.1193C20.1467 10.1193 20.09 9.96028 19.8971 9.96028C19.7043 9.96028 19.6134 10.1193 19.6134 10.1193C19.6134 10.1193 18.8413 11.5899 18.2405 11.2444C18.169 11.2033 18.0703 11.1193 18.0703 11.1193Z" fill="#EB6666"/>
<path d="M19.875 8.24996C22.1532 8.24996 23.9999 6.40317 23.9999 4.12499C23.9999 1.84683 22.1532 0 19.875 0C17.5968 0 15.75 1.84683 15.75 4.12499C15.75 6.40317 17.5968 8.24996 19.875 8.24996Z" fill="#FFAC06"/>
<path d="M21.6565 3.60246L19.5821 5.89654C19.5198 5.96524 19.4383 6 19.3565 6C19.2746 6 19.1931 5.96524 19.1309 5.89654L18.0938 4.74954C17.9687 4.61154 17.9687 4.38837 18.0938 4.25044C18.2185 4.11246 18.4201 4.11246 18.5448 4.25044L19.3565 5.14786L21.2054 3.10367C21.3302 2.96544 21.5318 2.96544 21.6565 3.10367C21.7812 3.24159 21.7812 3.46454 21.6565 3.60246Z" fill="white"/>
</svg>
