<svg width="36" height="36" viewBox="0 0 36 36" fill="none" xmlns="http://www.w3.org/2000/svg">
<g clip-path="url(#clip0_16814_1042)">
<g clip-path="url(#clip1_16814_1042)">
<path d="M8.74644 8.23537V2.94441L6.57469 8.23537H5.35043L3.17868 2.98699V8.23537H1.77344V0.6875H3.71097L5.97853 6.13815L8.19286 0.6875H10.1943V8.23537H8.74644Z" fill="#1BA1EC"/>
<path d="M11.9618 8.23537V0.6875H16.7311V2.0821H13.4309V3.94512H16.3692V5.29713H13.4416V8.23537H11.9618Z" fill="#1BA1EC"/>
<path d="M18.2109 16.854C18.2109 15.8344 19.0375 15.0078 20.0571 15.0078H21.8278C22.8474 15.0078 23.6739 15.8344 23.6739 16.854V30.4863H18.2109V16.854Z" fill="#1CCD8C"/>
<path d="M10.0156 21.4087C10.0156 20.3891 10.8422 19.5625 11.8618 19.5625H13.6325C14.6521 19.5625 15.4786 20.389 15.4786 21.4087V30.4885H10.0156V21.4087Z" fill="#FC9911"/>
<path d="M1.82031 25.0571C1.82031 24.0375 2.64686 23.2109 3.66646 23.2109H5.43715C6.45675 23.2109 7.2833 24.0375 7.2833 25.0571V30.4949H1.82031V25.0571Z" fill="#F5C415"/>
<rect y="30.4922" width="34.5989" height="1.821" rx="0.910498" fill="#FFA462"/>
</g>
<g clip-path="url(#clip2_16814_1042)">
<path d="M32.1461 30.4962V13.7466H34.4391C34.8288 13.7466 35.2185 13.5329 35.3907 13.1856C35.5629 12.8027 35.5357 12.3753 35.2819 12.0636L30.4513 5.42074C30.0616 4.85975 29.1462 4.85975 28.7202 5.42074L23.8805 12.0636C23.6358 12.3753 23.5995 12.8027 23.808 13.15C23.9802 13.4972 24.3337 13.711 24.7596 13.711H27.0617V30.4606" fill="#139AFA"/>
</g>
</g>
<defs>
<clipPath id="clip0_16814_1042">
<rect width="35.51" height="35.51" fill="white"/>
</clipPath>
<clipPath id="clip1_16814_1042">
<rect width="34.5989" height="34.5989" fill="white" transform="translate(0 0.445312)"/>
</clipPath>
<clipPath id="clip2_16814_1042">
<rect width="11.8365" height="25.494" fill="white" transform="translate(23.6719 5)"/>
</clipPath>
</defs>
</svg>
