<svg width="220" height="38" viewBox="0 0 220 38" fill="none" xmlns="http://www.w3.org/2000/svg">
<g filter="url(#filter0_d_17022_1076)">
<path d="M18.7721 36.5302C28.5872 36.5302 36.5441 28.5765 36.5441 18.7651C36.5441 8.95371 28.5872 1 18.7721 1C8.9568 1 1 8.95371 1 18.7651C1 28.5765 8.9568 36.5302 18.7721 36.5302Z" fill="url(#paint0_linear_17022_1076)"/>
</g>
<path fill-rule="evenodd" clip-rule="evenodd" d="M26.839 34.5918L12.8514 23.767L14.8265 18.7563L11.4844 14.2012L12.8514 10.1016H26.978L36.5475 18.8007C36.5307 25.6915 32.5891 31.6603 26.839 34.5918Z" fill="#593A9A"/>
<path d="M28.3377 12.6169H24.2837V28.6219C23.6226 28.6219 22.9714 28.4955 22.3298 28.2429C21.6881 28.0097 21.3673 27.7376 21.3673 27.4266V23.9574C20.0063 24.8126 18.5287 25.2401 16.9343 25.2401C15.3399 25.2401 14.0374 24.832 13.0263 24.0156C12.0348 23.18 11.5389 22.1013 11.5389 20.7797C11.5389 19.7691 11.8889 18.8654 12.5888 18.0685C11.5973 17.6993 10.8098 17.155 10.2265 16.4359C9.64324 15.6974 9.35156 14.8227 9.35156 13.8122C9.35156 12.8015 9.75989 11.8783 10.5765 11.0426C11.4126 10.207 12.55 9.78906 13.9888 9.78906C15.0386 9.78906 15.8455 10.0222 16.4094 10.4887C16.9927 10.9552 17.2843 11.5285 17.2843 12.2088C17.2843 13.5887 16.3899 14.5604 14.6013 15.124C14.3096 14.8909 14.0956 14.5604 13.9595 14.1329C14.7566 13.6081 15.1553 13.0542 15.1553 12.4711C15.1553 12.1407 15.0581 11.8783 14.8636 11.684C14.6692 11.4702 14.3582 11.3633 13.9304 11.3633C13.5026 11.3633 13.0847 11.5966 12.6763 12.063C12.268 12.5294 12.0639 13.1416 12.0639 13.8996C12.0639 14.6382 12.268 15.26 12.6763 15.7655C13.104 16.2512 13.6388 16.5914 14.2803 16.7858C15.1358 16.3583 16.0982 16.0376 17.1677 15.8237C17.9065 16.5235 18.3731 17.2522 18.5676 18.0101C17.362 18.2434 16.3413 18.6126 15.5054 19.118C14.6887 19.6039 14.2803 20.1676 14.2803 20.8089C14.2803 21.4308 14.4942 21.9361 14.922 22.3248C15.3692 22.7136 16.0011 22.9079 16.8177 22.9079C17.6537 22.9079 18.4801 22.6747 19.2967 22.2082C20.1133 21.7417 20.8035 21.1295 21.3673 20.3715V12.6169H19.355C18.6551 11.8006 18.3051 10.9357 18.3051 10.0222H27.4336C28.0362 10.7997 28.3377 11.6646 28.3377 12.6169Z" fill="white"/>
<path d="M51.0941 23.8773C52.8269 23.8773 54.4264 22.6244 54.4264 20.1451C54.4264 17.6659 52.8269 16.4129 51.0941 16.4129C49.3613 16.4129 47.7617 17.6659 47.7617 20.1451C47.7617 22.5977 49.3613 23.8773 51.0941 23.8773ZM51.0941 13.1872C55.0129 13.1872 57.972 16.093 57.972 20.1451C57.972 24.1706 55.0129 27.103 51.0941 27.103C47.1753 27.103 44.2162 24.1706 44.2162 20.1451C44.2162 16.093 47.1753 13.1872 51.0941 13.1872ZM64.338 31.7683H60.7924V13.5871H64.2313V15.1866C64.8178 14.1736 66.284 13.2939 68.2568 13.2939C72.0956 13.2939 74.3083 16.2263 74.3083 20.1185C74.3083 24.0906 71.829 27.023 68.1235 27.023C66.3107 27.023 64.9778 26.3032 64.338 25.4235V31.7683ZM70.816 20.1451C70.816 17.8258 69.3764 16.4662 67.5637 16.4662C65.7509 16.4662 64.2847 17.8258 64.2847 20.1451C64.2847 22.4644 65.7509 23.8507 67.5637 23.8507C69.3764 23.8507 70.816 22.4911 70.816 20.1451ZM81.5973 9.66829V13.5871H84.2365V16.7328H81.5973V22.2245C81.5973 23.3708 82.1305 23.744 83.1435 23.744C83.5701 23.744 84.0499 23.6907 84.2365 23.6374V26.5698C83.9166 26.7031 83.2768 26.8897 82.2371 26.8897C79.6779 26.8897 78.0784 25.3702 78.0784 22.8376V16.7328H75.7058V13.5871H76.3722C77.7585 13.5871 78.3983 12.6807 78.3983 11.5077V9.66829H81.5973ZM90.6321 26.7031H87.0865V13.5871H90.6321V26.7031ZM86.66 9.29507C86.66 8.06877 87.6463 7.0824 88.846 7.0824C90.0723 7.0824 91.032 8.06877 91.032 9.29507C91.032 10.468 90.0723 11.4544 88.846 11.4544C87.6463 11.4544 86.66 10.468 86.66 9.29507ZM100.324 23.8773C102.057 23.8773 103.656 22.6244 103.656 20.1451C103.656 17.6659 102.057 16.4129 100.324 16.4129C98.5911 16.4129 96.9916 17.6659 96.9916 20.1451C96.9916 22.5977 98.5911 23.8773 100.324 23.8773ZM100.324 13.1872C104.243 13.1872 107.202 16.093 107.202 20.1451C107.202 24.1706 104.243 27.103 100.324 27.103C96.4051 27.103 93.446 24.1706 93.446 20.1451C93.446 16.093 96.4051 13.1872 100.324 13.1872ZM113.568 19.1587V26.7031H110.022V13.5871H113.461V15.2133C114.261 13.8537 115.834 13.2405 117.247 13.2405C120.499 13.2405 121.992 15.5598 121.992 18.439V26.7031H118.446V19.0521C118.446 17.5859 117.727 16.4396 116.02 16.4396C114.474 16.4396 113.568 17.6392 113.568 19.1587ZM124.607 23.0509L127.646 22.3844C127.726 23.4241 128.499 24.3838 130.045 24.3838C131.218 24.3838 131.778 23.7707 131.778 23.0776C131.778 22.4911 131.378 22.0112 130.365 21.7979L128.632 21.3981C126.099 20.8382 124.953 19.3187 124.953 17.4793C124.953 15.1333 127.033 13.1872 129.858 13.1872C133.591 13.1872 134.843 15.5598 135.003 16.9727L132.044 17.6392C131.938 16.8661 131.378 15.8797 129.885 15.8797C128.952 15.8797 128.205 16.4396 128.205 17.186C128.205 17.8258 128.685 18.2257 129.405 18.359L131.271 18.7589C133.857 19.292 135.163 20.8649 135.163 22.7843C135.163 24.917 133.511 27.103 130.072 27.103C126.126 27.103 124.767 24.5438 124.607 23.0509ZM148.504 9.66829V13.5871H151.143V16.7328H148.504V22.2245C148.504 23.3708 149.037 23.744 150.05 23.744C150.477 23.744 150.957 23.6907 151.143 23.6374V26.5698C150.823 26.7031 150.184 26.8897 149.144 26.8897C146.585 26.8897 144.985 25.3702 144.985 22.8376V16.7328H142.613V13.5871H143.279C144.665 13.5871 145.305 12.6807 145.305 11.5077V9.66829H148.504ZM161.991 13.5338V17.106C161.591 17.0261 161.244 16.9994 160.925 16.9994C159.112 16.9994 157.539 17.8791 157.539 20.7049V26.7031H153.993V13.5871H157.432V15.5332C158.232 13.8004 160.045 13.4805 161.164 13.4805C161.458 13.4805 161.724 13.5071 161.991 13.5338ZM163.556 23.1309C163.556 20.7849 165.288 19.4786 167.474 19.1587L170.7 18.6789C171.447 18.5723 171.686 18.199 171.686 17.7458C171.686 16.8128 170.967 16.0397 169.474 16.0397C167.928 16.0397 167.075 17.0261 166.968 18.1724L163.822 17.5059C164.035 15.4532 165.928 13.1872 169.447 13.1872C173.606 13.1872 175.152 15.5332 175.152 18.1724V24.6238C175.152 25.3169 175.232 26.2499 175.312 26.7031H172.06C171.98 26.3566 171.926 25.6368 171.926 25.1303C171.26 26.17 170.007 27.0763 168.061 27.0763C165.262 27.0763 163.556 25.1836 163.556 23.1309ZM168.807 24.4371C170.3 24.4371 171.686 23.7174 171.686 21.3981V20.8116L168.727 21.2648C167.821 21.3981 167.101 21.9046 167.101 22.9176C167.101 23.6907 167.661 24.4371 168.807 24.4371ZM191.363 7.40231V24.3305C191.363 25.2102 191.416 26.17 191.469 26.7031H188.084C188.03 26.4365 187.951 25.7967 187.951 25.1836C187.364 26.2233 186.031 27.023 184.272 27.023C180.539 27.023 177.874 24.0906 177.874 20.1185C177.874 16.2796 180.459 13.2672 184.165 13.2672C186.431 13.2672 187.497 14.2002 187.871 14.8934V7.40231H191.363ZM181.446 20.1185C181.446 22.4644 182.832 23.8507 184.698 23.8507C186.511 23.8507 187.924 22.4644 187.924 20.0918C187.924 17.7458 186.511 16.4396 184.698 16.4396C182.885 16.4396 181.446 17.7725 181.446 20.1185ZM197.796 18.6522H203.661C203.607 17.346 202.754 16.0663 200.728 16.0663C198.889 16.0663 197.876 17.4526 197.796 18.6522ZM204.007 22.0645L206.966 22.9443C206.3 25.2102 204.22 27.103 200.995 27.103C197.396 27.103 194.223 24.5171 194.223 20.0918C194.223 15.9064 197.316 13.1872 200.675 13.1872C204.727 13.1872 207.153 15.7731 207.153 19.9852C207.153 20.4917 207.099 21.0248 207.099 21.0782H197.716C197.796 22.811 199.262 24.0639 201.021 24.0639C202.674 24.0639 203.581 23.2375 204.007 22.0645ZM218.016 13.5338V17.106C217.616 17.0261 217.269 16.9994 216.949 16.9994C215.136 16.9994 213.564 17.8791 213.564 20.7049V26.7031H210.018V13.5871H213.457V15.5332C214.257 13.8004 216.069 13.4805 217.189 13.4805C217.482 13.4805 217.749 13.5071 218.016 13.5338Z" fill="white"/>
<defs>
<filter id="filter0_d_17022_1076" x="0.506751" y="0.671167" width="36.5334" height="36.5177" filterUnits="userSpaceOnUse" color-interpolation-filters="sRGB">
<feFlood flood-opacity="0" result="BackgroundImageFix"/>
<feColorMatrix in="SourceAlpha" type="matrix" values="0 0 0 0 0 0 0 0 0 0 0 0 0 0 0 0 0 0 127 0" result="hardAlpha"/>
<feOffset dy="0.164416"/>
<feGaussianBlur stdDeviation="0.246625"/>
<feComposite in2="hardAlpha" operator="out"/>
<feColorMatrix type="matrix" values="0 0 0 0 0.2 0 0 0 0 0.2 0 0 0 0 0.2 0 0 0 0.24 0"/>
<feBlend mode="normal" in2="BackgroundImageFix" result="effect1_dropShadow_17022_1076"/>
<feBlend mode="normal" in="SourceGraphic" in2="effect1_dropShadow_17022_1076" result="shape"/>
</filter>
<linearGradient id="paint0_linear_17022_1076" x1="34.3226" y1="31.2006" x2="21.6419" y2="0.513536" gradientUnits="userSpaceOnUse">
<stop stop-color="#5C33AF"/>
<stop offset="1" stop-color="#9871EE"/>
</linearGradient>
</defs>
</svg>
